<svg xmlns="http://www.w3.org/2000/svg" viewBox="0 0 800 500">
  <!-- Title -->
  <text x="400" y="25" font-family="Arial, sans-serif" font-size="18" font-weight="bold" text-anchor="middle" fill="#333">
    Temperature Compensation Curve (Non-Linear)
  </text>

  <!-- Background -->
  <rect x="80" y="50" width="640" height="380" fill="#f9f9f9" stroke="#ddd" stroke-width="1"/>

  <!-- Grid lines -->
  <g stroke="#e0e0e0" stroke-width="1">
    <!-- Horizontal grid lines -->
    <line x1="80" y1="90" x2="720" y2="90"/>
    <line x1="80" y1="130" x2="720" y2="130"/>
    <line x1="80" y1="170" x2="720" y2="170"/>
    <line x1="80" y1="210" x2="720" y2="210"/>
    <line x1="80" y1="250" x2="720" y2="250"/>
    <line x1="80" y1="290" x2="720" y2="290"/>
    <line x1="80" y1="330" x2="720" y2="330"/>
    <line x1="80" y1="370" x2="720" y2="370"/>
    <line x1="80" y1="410" x2="720" y2="410"/>

    <!-- Vertical grid lines -->
    <line x1="140" y1="50" x2="140" y2="430"/>
    <line x1="220" y1="50" x2="220" y2="430"/>
    <line x1="300" y1="50" x2="300" y2="430"/>
    <line x1="380" y1="50" x2="380" y2="430"/>
    <line x1="460" y1="50" x2="460" y2="430"/>
    <line x1="540" y1="50" x2="540" y2="430"/>
    <line x1="620" y1="50" x2="620" y2="430"/>
    <line x1="700" y1="50" x2="700" y2="430"/>
  </g>

  <!-- Axes -->
  <line x1="80" y1="50" x2="80" y2="430" stroke="#333" stroke-width="2"/>
  <line x1="80" y1="430" x2="720" y2="430" stroke="#333" stroke-width="2"/>

  <!-- Y-axis labels (Flow Temperature) -->
  <g font-family="Arial, sans-serif" font-size="12" fill="#333" text-anchor="end">
    <text x="72" y="54">60°C</text>
    <text x="72" y="94">55°C</text>
    <text x="72" y="134">50°C</text>
    <text x="72" y="174">45°C</text>
    <text x="72" y="214">40°C</text>
    <text x="72" y="254">35°C</text>
    <text x="72" y="294">30°C</text>
    <text x="72" y="334">25°C</text>
    <text x="72" y="374">20°C</text>
    <text x="72" y="414">15°C</text>
  </g>

  <!-- X-axis labels (Outdoor Temperature) -->
  <g font-family="Arial, sans-serif" font-size="12" fill="#333" text-anchor="middle">
    <text x="80" y="448">-20°C</text>
    <text x="160" y="448">-15°C</text>
    <text x="240" y="448">-10°C</text>
    <text x="320" y="448">-5°C</text>
    <text x="400" y="448">0°C</text>
    <text x="480" y="448">5°C</text>
    <text x="560" y="448">10°C</text>
    <text x="640" y="448">15°C</text>
    <text x="720" y="448">20°C</text>
  </g>

  <!-- Axis labels -->
  <text x="20" y="240" font-family="Arial, sans-serif" font-size="14" font-weight="bold" fill="#333" text-anchor="middle" transform="rotate(-90 20 240)">
    Flow Temperature (°C)
  </text>
  <text x="400" y="480" font-family="Arial, sans-serif" font-size="14" font-weight="bold" fill="#333" text-anchor="middle">
    Outdoor Temperature (°C)
  </text>

  <!-- Reference lines -->
  <line x1="80" y1="50" x2="720" y2="50" stroke="#e74c3c" stroke-width="2" stroke-dasharray="5,5" opacity="0.5"/>
  <text x="725" y="54" font-family="Arial, sans-serif" font-size="10" fill="#e74c3c">60°C max</text>

  <line x1="80" y1="387.8" x2="720" y2="387.8" stroke="#3498db" stroke-width="2" stroke-dasharray="5,5" opacity="0.5"/>
  <text x="725" y="392" font-family="Arial, sans-serif" font-size="10" fill="#3498db">20°C min</text>

  <!-- Main curve -->
  <polyline points="100.0,50.0 112.8,50.0 125.6,50.0 138.4,50.0 151.2,50.0 164.0,50.0 176.8,50.8 189.6,58.5 202.4,66.3 215.2,74.2 228.0,82.1 240.8,90.1 253.6,98.1 266.4,106.2 279.2,114.4 292.0,122.6 304.8,130.9 317.6,139.3 330.4,147.8 343.2,156.3 356.0,165.0 368.8,173.7 381.6,182.6 394.4,191.5 407.2,200.6 420.0,209.8 432.8,219.1 445.6,228.6 458.4,238.2 471.2,248.0 484.0,258.0 496.8,268.3 509.6,278.8 522.4,289.5 535.2,300.7 548.0,312.2 560.8,324.3 573.6,337.0 586.4,350.8 599.2,366.2 612.0,387.8 624.8,387.8 637.6,387.8 650.4,387.8 663.2,387.8 676.0,387.8 688.8,387.8 701.6,387.8 714.4,387.8 727.2,387.8 740.0,387.8" fill="none" stroke="#e74c3c" stroke-width="3"/>

  <!-- Formula annotation -->
  <text x="400" y="465" font-family="monospace" font-size="11" fill="#666" text-anchor="middle">
    Formula: 2.55 × (1.0 × (20 - T_out))^0.78 + 20  (capped 20-60°C)
  </text>
</svg>