<svg xmlns="http://www.w3.org/2000/svg" viewBox="0 0 800 500">
  <!-- Title -->
  <text x="400" y="25" font-family="Arial, sans-serif" font-size="18" font-weight="bold" text-anchor="middle" fill="#333">
    Temperature Compensation Curve (Non-Linear)
  </text>

  <!-- Background -->
  <rect x="80" y="50" width="640" height="380" fill="#f9f9f9" stroke="#ddd" stroke-width="1"/>

  <!-- Grid lines -->
  <g stroke="#e0e0e0" stroke-width="1">
    <!-- Horizontal grid lines -->
    <line x1="80" y1="90" x2="720" y2="90"/>
    <line x1="80" y1="130" x2="720" y2="130"/>
    <line x1="80" y1="170" x2="720" y2="170"/>
    <line x1="80" y1="210" x2="720" y2="210"/>
    <line x1="80" y1="250" x2="720" y2="250"/>
    <line x1="80" y1="290" x2="720" y2="290"/>
    <line x1="80" y1="330" x2="720" y2="330"/>
    <line x1="80" y1="370" x2="720" y2="370"/>
    <line x1="80" y1="410" x2="720" y2="410"/>

    <!-- Vertical grid lines -->
    <line x1="140" y1="50" x2="140" y2="430"/>
    <line x1="220" y1="50" x2="220" y2="430"/>
    <line x1="300" y1="50" x2="300" y2="430"/>
    <line x1="380" y1="50" x2="380" y2="430"/>
    <line x1="460" y1="50" x2="460" y2="430"/>
    <line x1="540" y1="50" x2="540" y2="430"/>
    <line x1="620" y1="50" x2="620" y2="430"/>
    <line x1="700" y1="50" x2="700" y2="430"/>
  </g>

  <!-- Axes -->
  <line x1="80" y1="50" x2="80" y2="430" stroke="#333" stroke-width="2"/>
  <line x1="80" y1="430" x2="720" y2="430" stroke="#333" stroke-width="2"/>

  <!-- Y-axis labels (Flow Temperature) -->
  <g font-family="Arial, sans-serif" font-size="12" fill="#333" text-anchor="end">
    <text x="72" y="54">60°C</text>
    <text x="72" y="94">55°C</text>
    <text x="72" y="134">50°C</text>
    <text x="72" y="174">45°C</text>
    <text x="72" y="214">40°C</text>
    <text x="72" y="254">35°C</text>
    <text x="72" y="294">30°C</text>
    <text x="72" y="334">25°C</text>
    <text x="72" y="374">20°C</text>
    <text x="72" y="414">15°C</text>
  </g>

  <!-- X-axis labels (Outdoor Temperature) -->
  <g font-family="Arial, sans-serif" font-size="12" fill="#333" text-anchor="middle">
    <text x="80" y="448">-20°C</text>
    <text x="160" y="448">-15°C</text>
    <text x="240" y="448">-10°C</text>
    <text x="320" y="448">-5°C</text>
    <text x="400" y="448">0°C</text>
    <text x="480" y="448">5°C</text>
    <text x="560" y="448">10°C</text>
    <text x="640" y="448">15°C</text>
    <text x="720" y="448">20°C</text>
  </g>

  <!-- Axis labels -->
  <text x="20" y="240" font-family="Arial, sans-serif" font-size="14" font-weight="bold" fill="#333" text-anchor="middle" transform="rotate(-90 20 240)">
    Flow Temperature (°C)
  </text>
  <text x="400" y="480" font-family="Arial, sans-serif" font-size="14" font-weight="bold" fill="#333" text-anchor="middle">
    Outdoor Temperature (°C)
  </text>

  <!-- Reference lines -->
  <line x1="80" y1="50" x2="720" y2="50" stroke="#e74c3c" stroke-width="2" stroke-dasharray="5,5" opacity="0.5"/>
  <text x="725" y="54" font-family="Arial, sans-serif" font-size="10" fill="#e74c3c">60°C max</text>

  <line x1="80" y1="370" x2="720" y2="370" stroke="#3498db" stroke-width="2" stroke-dasharray="5,5" opacity="0.5"/>
  <text x="725" y="374" font-family="Arial, sans-serif" font-size="10" fill="#3498db">20°C min</text>

  <!-- Main curve -->
  <polyline points="100.0,88.0 112.8,88.0 125.6,88.0 138.4,88.0 151.2,88.0 164.0,88.0 176.8,88.7 189.6,95.7 202.4,102.7 215.2,109.8 228.0,116.9 240.8,124.1 253.6,131.3 266.4,138.6 279.2,145.9 292.0,153.4 304.8,160.8 317.6,168.4 330.4,176.0 343.2,183.7 356.0,191.5 368.8,199.3 381.6,207.3 394.4,215.4 407.2,223.5 420.0,231.8 432.8,240.2 445.6,248.7 458.4,257.4 471.2,266.2 484.0,275.2 496.8,284.4 509.6,293.9 522.4,303.6 535.2,313.6 548.0,324.0 560.8,334.9 573.6,346.3 586.4,358.7 599.2,372.6 612.0,392.0 624.8,392.0 637.6,392.0 650.4,392.0 663.2,392.0 676.0,392.0 688.8,392.0 701.6,392.0 714.4,392.0 727.2,392.0 740.0,392.0" fill="none" stroke="#e74c3c" stroke-width="3"/>

  <!-- Data points -->
  <g fill="#c0392b">
    <circle cx="100.0" cy="88.0" r="4"/>
    <circle cx="228.0" cy="116.88874921746401" r="4"/>
    <circle cx="356.0" cy="191.48024314249798" r="4"/>
    <circle cx="484.0" cy="275.22395221878946" r="4"/>
    <circle cx="612.0" cy="392.0" r="4"/>
  </g>

  <!-- Formula annotation -->
  <text x="400" y="465" font-family="monospace" font-size="11" fill="#666" text-anchor="middle">
    Formula: 2.55 × (1.0 × (20 - T_out))^0.78 + 20  (capped 20-60°C)
  </text>
</svg>