<svg xmlns="http://www.w3.org/2000/svg" viewBox="0 0 800 500">
  <!-- Title -->
  <text x="400" y="25" font-family="Arial, sans-serif" font-size="18" font-weight="bold" text-anchor="middle" fill="#333">
    Temperature Compensation Curve
  </text>

  <!-- Background -->
  <rect x="80" y="50" width="640" height="380" fill="#f9f9f9" stroke="#ddd" stroke-width="1"/>

  <!-- Grid lines -->
  <g stroke="#e0e0e0" stroke-width="1">
    <!-- Horizontal grid lines -->
    <line x1="80" y1="90" x2="720" y2="90"/>
    <line x1="80" y1="130" x2="720" y2="130"/>
    <line x1="80" y1="170" x2="720" y2="170"/>
    <line x1="80" y1="210" x2="720" y2="210"/>
    <line x1="80" y1="250" x2="720" y2="250"/>
    <line x1="80" y1="290" x2="720" y2="290"/>
    <line x1="80" y1="330" x2="720" y2="330"/>
    <line x1="80" y1="370" x2="720" y2="370"/>
    <line x1="80" y1="410" x2="720" y2="410"/>

    <!-- Vertical grid lines -->
    <line x1="140" y1="50" x2="140" y2="430"/>
    <line x1="220" y1="50" x2="220" y2="430"/>
    <line x1="300" y1="50" x2="300" y2="430"/>
    <line x1="380" y1="50" x2="380" y2="430"/>
    <line x1="460" y1="50" x2="460" y2="430"/>
    <line x1="540" y1="50" x2="540" y2="430"/>
    <line x1="620" y1="50" x2="620" y2="430"/>
    <line x1="700" y1="50" x2="700" y2="430"/>
  </g>

  <!-- Axes -->
  <line x1="80" y1="50" x2="80" y2="430" stroke="#333" stroke-width="2"/>
  <line x1="80" y1="430" x2="720" y2="430" stroke="#333" stroke-width="2"/>

  <!-- Y-axis labels (Flow Temperature) -->
  <g font-family="Arial, sans-serif" font-size="12" fill="#333" text-anchor="end">
    <text x="72" y="54">60°C</text>
    <text x="72" y="94">55°C</text>
    <text x="72" y="134">50°C</text>
    <text x="72" y="174">45°C</text>
    <text x="72" y="214">40°C</text>
    <text x="72" y="254">35°C</text>
    <text x="72" y="294">30°C</text>
    <text x="72" y="334">25°C</text>
    <text x="72" y="374">20°C</text>
    <text x="72" y="414">15°C</text>
  </g>

  <!-- X-axis labels (Outdoor Temperature) -->
  <g font-family="Arial, sans-serif" font-size="12" fill="#333" text-anchor="middle">
    <text x="80" y="448">-10°C</text>
    <text x="160" y="448">-5°C</text>
    <text x="240" y="448">0°C</text>
    <text x="320" y="448">5°C</text>
    <text x="400" y="448">10°C</text>
    <text x="480" y="448">15°C</text>
    <text x="560" y="448">20°C</text>
    <text x="640" y="448">25°C</text>
    <text x="720" y="448">30°C</text>
  </g>

  <!-- Axis labels -->
  <text x="20" y="240" font-family="Arial, sans-serif" font-size="14" font-weight="bold" fill="#333" text-anchor="middle" transform="rotate(-90 20 240)">
    Flow Temperature (°C)
  </text>
  <text x="400" y="480" font-family="Arial, sans-serif" font-size="14" font-weight="bold" fill="#333" text-anchor="middle">
    Outdoor Temperature (°C)
  </text>

  <!-- Max cap line (60°C) -->
  <line x1="80" y1="50" x2="144" y2="50" stroke="#e74c3c" stroke-width="3" stroke-dasharray="5,5"/>

  <!-- Main curve line -->
  <!-- From -10°C (58°C flow) to 28°C (20°C flow) -->
  <polyline points="
    80,66
    160,106
    240,146
    320,186
    400,226
    480,266
    560,306
    640,346
    688,370
  " fill="none" stroke="#3498db" stroke-width="3"/>

  <!-- Min cap line (20°C) -->
  <line x1="688" y1="370" x2="720" y2="370" stroke="#e74c3c" stroke-width="3" stroke-dasharray="5,5"/>

  <!-- Data points -->
  <g fill="#2980b9">
    <circle cx="80" cy="66" r="4"/>   <!-- -10°C, 58°C -->
    <circle cx="160" cy="106" r="4"/>  <!-- -5°C, 53°C -->
    <circle cx="240" cy="146" r="4"/>  <!-- 0°C, 48°C -->
    <circle cx="320" cy="186" r="4"/>  <!-- 5°C, 43°C -->
    <circle cx="400" cy="226" r="4"/>  <!-- 10°C, 38°C -->
    <circle cx="480" cy="266" r="4"/>  <!-- 15°C, 33°C -->
    <circle cx="560" cy="306" r="4"/>  <!-- 20°C, 28°C -->
    <circle cx="640" cy="346" r="4"/>  <!-- 25°C, 23°C -->
    <circle cx="720" cy="370" r="4"/>  <!-- 30°C, 20°C (capped) -->
  </g>

  <!-- Legend -->
  <g transform="translate(600, 80)">
    <rect x="0" y="0" width="100" height="60" fill="white" stroke="#999" stroke-width="1" rx="5"/>
    <line x1="10" y1="15" x2="35" y2="15" stroke="#3498db" stroke-width="3"/>
    <text x="40" y="19" font-family="Arial, sans-serif" font-size="11" fill="#333">Curve</text>
    <line x1="10" y1="35" x2="35" y2="35" stroke="#e74c3c" stroke-width="3" stroke-dasharray="5,5"/>
    <text x="40" y="39" font-family="Arial, sans-serif" font-size="11" fill="#333">Limits</text>
  </g>

  <!-- Formula annotation -->
  <text x="400" y="465" font-family="monospace" font-size="11" fill="#666" text-anchor="middle">
    Formula: Flow = 48 - Outdoor (capped 20-60°C)
  </text>
</svg>
