<svg xmlns="http://www.w3.org/2000/svg" viewBox="0 0 800 500">
  <!-- Title -->
  <text x="400" y="25" font-family="Arial, sans-serif" font-size="18" font-weight="bold" text-anchor="middle" fill="#333">
    Compensation Curve with HC = 0.75
  </text>

  <!-- Background -->
  <rect x="80" y="50" width="640" height="380" fill="#f9f9f9" stroke="#ddd" stroke-width="1"/>

  <!-- Grid lines -->
  <g stroke="#e0e0e0" stroke-width="1">
    <!-- Horizontal grid lines -->
    <line x1="80" y1="90" x2="720" y2="90"/>
    <line x1="80" y1="130" x2="720" y2="130"/>
    <line x1="80" y1="170" x2="720" y2="170"/>
    <line x1="80" y1="210" x2="720" y2="210"/>
    <line x1="80" y1="250" x2="720" y2="250"/>
    <line x1="80" y1="290" x2="720" y2="290"/>
    <line x1="80" y1="330" x2="720" y2="330"/>
    <line x1="80" y1="370" x2="720" y2="370"/>
    <line x1="80" y1="410" x2="720" y2="410"/>

    <!-- Vertical grid lines -->
    <line x1="160" y1="50" x2="160" y2="430"/>
    <line x1="240" y1="50" x2="240" y2="430"/>
    <line x1="320" y1="50" x2="320" y2="430"/>
    <line x1="400" y1="50" x2="400" y2="430"/>
    <line x1="480" y1="50" x2="480" y2="430"/>
    <line x1="560" y1="50" x2="560" y2="430"/>
    <line x1="640" y1="50" x2="640" y2="430"/>
    <line x1="720" y1="50" x2="720" y2="430"/>
  </g>

  <!-- Axes -->
  <line x1="80" y1="50" x2="80" y2="430" stroke="#333" stroke-width="2"/>
  <line x1="80" y1="430" x2="720" y2="430" stroke="#333" stroke-width="2"/>

  <!-- Y-axis labels (Flow Temperature) -->
  <g font-family="Arial, sans-serif" font-size="12" fill="#333" text-anchor="end">
    <text x="72" y="54">60°C</text>
    <text x="72" y="94">55°C</text>
    <text x="72" y="134">50°C</text>
    <text x="72" y="174">45°C</text>
    <text x="72" y="214">40°C</text>
    <text x="72" y="254">35°C</text>
    <text x="72" y="294">30°C</text>
    <text x="72" y="334">25°C</text>
    <text x="72" y="374">20°C</text>
    <text x="72" y="414">15°C</text>
  </g>

  <!-- X-axis labels (Outdoor Temperature) -->
  <g font-family="Arial, sans-serif" font-size="12" fill="#333" text-anchor="middle">
    <text x="80" y="448">-20°C</text>
    <text x="160" y="448">-15°C</text>
    <text x="240" y="448">-10°C</text>
    <text x="320" y="448">-5°C</text>
    <text x="400" y="448">0°C</text>
    <text x="480" y="448">5°C</text>
    <text x="560" y="448">10°C</text>
    <text x="640" y="448">15°C</text>
    <text x="720" y="448">20°C</text>
  </g>

  <!-- Axis labels -->
  <text x="20" y="240" font-family="Arial, sans-serif" font-size="14" font-weight="bold" fill="#333" text-anchor="middle" transform="rotate(-90 20 240)">
    Flow Temperature (°C)
  </text>
  <text x="400" y="480" font-family="Arial, sans-serif" font-size="14" font-weight="bold" fill="#333" text-anchor="middle">
    Outdoor Temperature (°C)
  </text>

  <!-- Reference lines -->
  <line x1="80" y1="50" x2="720" y2="50" stroke="#e74c3c" stroke-width="2" stroke-dasharray="5,5" opacity="0.5"/>
  <text x="725" y="54" font-family="Arial, sans-serif" font-size="10" fill="#e74c3c">60°C max</text>

  <line x1="80" y1="370" x2="720" y2="370" stroke="#3498db" stroke-width="2" stroke-dasharray="5,5" opacity="0.5"/>
  <text x="725" y="374" font-family="Arial, sans-serif" font-size="10" fill="#3498db">20°C min</text>

  <!-- HC = 0.75 curve -->
  <!-- Formula: 2.55 * (0.75 * (20 - T_out))^0.78 + 20, capped 20-60 -->
  <!-- X scale: 80 to 720 maps to -20°C to 20°C (16 px per °C) -->
  <!-- Y scale: 50 to 370 maps to 60°C to 20°C (8 px per °C), so y = 370 - (temp - 20) * 8 -->
  <!-- Points at 2.5°C intervals from T_out=-20 to T_out=20 -->
  <polyline points="80.0,80.4 96.0,86.1 112.0,91.8 128.0,97.5 144.0,103.3 160.0,109.1 176.0,114.9 192.0,120.8 208.0,126.7 224.0,132.6 240.0,138.6 256.0,144.7 272.0,150.7 288.0,156.9 304.0,163.1 320.0,169.3 336.0,175.6 352.0,181.9 368.0,188.3 384.0,194.8 400.0,201.4 416.0,208.0 432.0,214.7 448.0,221.4 464.0,228.3 480.0,235.2 496.0,242.3 512.0,249.5 528.0,256.8 544.0,264.2 560.0,271.8 576.0,279.5 592.0,287.5 608.0,295.6 624.0,304.1 640.0,312.8 656.0,321.9 672.0,331.6 688.0,342.0 704.0,353.7 720.0,370.0" fill="none" stroke="#3498db" stroke-width="3"/>

  <!-- Legend -->
  <g transform="translate(540, 80)">
    <rect x="0" y="0" width="160" height="45" fill="white" stroke="#999" stroke-width="1" rx="5"/>

    <line x1="10" y1="24" x2="50" y2="24" stroke="#3498db" stroke-width="3"/>
    <text x="55" y="28" font-family="Arial, sans-serif" font-size="12" fill="#333">HC = 0.75</text>
  </g>

  <!-- Formula annotation -->
  <text x="400" y="465" font-family="monospace" font-size="11" fill="#666" text-anchor="middle">
    Formula: 2.55 × (0.75 × (20 - T_out))^0.78 + 20  (capped 20-60°C)
  </text>
</svg>
