<svg xmlns="http://www.w3.org/2000/svg" viewBox="0 0 800 500">
  <!-- Title -->
  <text x="400" y="25" font-family="Arial, sans-serif" font-size="18" font-weight="bold" text-anchor="middle" fill="#333">
    Flow Temperature vs Outdoor Temperature (Wind Scenarios)
  </text>

  <!-- Background -->
  <rect x="80" y="50" width="640" height="380" fill="#f9f9f9" stroke="#ddd" stroke-width="1"/>

  <!-- Grid lines -->
  <g stroke="#e0e0e0" stroke-width="1">
    <!-- Horizontal grid lines (every 5°C flow temp) -->
    <line x1="80" y1="50" x2="720" y2="50"/>   <!-- 60°C -->
    <line x1="80" y1="98" x2="720" y2="98"/>   <!-- 55°C -->
    <line x1="80" y1="145" x2="720" y2="145"/> <!-- 50°C -->
    <line x1="80" y1="193" x2="720" y2="193"/> <!-- 45°C -->
    <line x1="80" y1="240" x2="720" y2="240"/> <!-- 40°C -->
    <line x1="80" y1="288" x2="720" y2="288"/> <!-- 35°C -->
    <line x1="80" y1="335" x2="720" y2="335"/> <!-- 30°C -->
    <line x1="80" y1="383" x2="720" y2="383"/> <!-- 25°C -->
    <line x1="80" y1="430" x2="720" y2="430"/> <!-- 20°C -->

    <!-- Vertical grid lines (every 5°C outdoor) -->
    <line x1="80" y1="50" x2="80" y2="430"/>    <!-- -20°C -->
    <line x1="160" y1="50" x2="160" y2="430"/>  <!-- -15°C -->
    <line x1="240" y1="50" x2="240" y2="430"/>  <!-- -10°C -->
    <line x1="320" y1="50" x2="320" y2="430"/>  <!-- -5°C -->
    <line x1="400" y1="50" x2="400" y2="430"/>  <!-- 0°C -->
    <line x1="480" y1="50" x2="480" y2="430"/>  <!-- 5°C -->
    <line x1="560" y1="50" x2="560" y2="430"/>  <!-- 10°C -->
    <line x1="640" y1="50" x2="640" y2="430"/>  <!-- 15°C -->
    <line x1="720" y1="50" x2="720" y2="430"/>  <!-- 20°C -->
  </g>

  <!-- Axes -->
  <line x1="80" y1="50" x2="80" y2="430" stroke="#333" stroke-width="2"/>
  <line x1="80" y1="430" x2="720" y2="430" stroke="#333" stroke-width="2"/>

  <!-- Y-axis labels (Flow Temperature) -->
  <g font-family="Arial, sans-serif" font-size="12" fill="#333" text-anchor="end">
    <text x="72" y="54">60°C</text>
    <text x="72" y="102">55°C</text>
    <text x="72" y="149">50°C</text>
    <text x="72" y="197">45°C</text>
    <text x="72" y="244">40°C</text>
    <text x="72" y="292">35°C</text>
    <text x="72" y="339">30°C</text>
    <text x="72" y="387">25°C</text>
    <text x="72" y="434">20°C</text>
  </g>

  <!-- X-axis labels (Outdoor Temperature) -->
  <g font-family="Arial, sans-serif" font-size="12" fill="#333" text-anchor="middle">
    <text x="80" y="448">-20°C</text>
    <text x="160" y="448">-15°C</text>
    <text x="240" y="448">-10°C</text>
    <text x="320" y="448">-5°C</text>
    <text x="400" y="448">0°C</text>
    <text x="480" y="448">5°C</text>
    <text x="560" y="448">10°C</text>
    <text x="640" y="448">15°C</text>
    <text x="720" y="448">20°C</text>
  </g>

  <!-- Axis labels -->
  <text x="20" y="240" font-family="Arial, sans-serif" font-size="14" font-weight="bold" fill="#333" text-anchor="middle" transform="rotate(-90 20 240)">
    Flow Temperature (°C)
  </text>
  <text x="400" y="480" font-family="Arial, sans-serif" font-size="14" font-weight="bold" fill="#333" text-anchor="middle">
    Outdoor Temperature (°C)
  </text>

  <!-- Reference lines -->
  <line x1="80" y1="50" x2="720" y2="50" stroke="#e74c3c" stroke-width="2" stroke-dasharray="5,5" opacity="0.3"/>
  <text x="725" y="54" font-family="Arial, sans-serif" font-size="10" fill="#e74c3c">60°C max</text>

  <line x1="80" y1="430" x2="720" y2="430" stroke="#3498db" stroke-width="2" stroke-dasharray="5,5" opacity="0.3"/>
  <text x="725" y="434" font-family="Arial, sans-serif" font-size="10" fill="#3498db">20°C min</text>

  <!-- Curve lines -->
  <!-- Formula: 2.55 * (0.75 * (20 - T_out))^0.78 + 20 + 0.1178 * wind^0.898 -->
  <polyline points="80.0,86.1 96.0,92.8 112.0,99.6 128.0,106.4 144.0,113.2 160.0,120.1 176.0,127.1 192.0,134.0 208.0,141.0 224.0,148.1 240.0,155.2 256.0,162.4 272.0,169.6 288.0,176.9 304.0,184.3 320.0,191.7 336.0,199.1 352.0,206.7 368.0,214.3 384.0,222.0 400.0,229.7 416.0,237.6 432.0,245.5 448.0,253.6 464.0,261.7 480.0,270.0 496.0,278.4 512.0,286.9 528.0,295.5 544.0,304.4 560.0,313.4 576.0,322.6 592.0,332.0 608.0,341.7 624.0,351.7 640.0,362.1 656.0,372.9 672.0,384.4 688.0,396.8 704.0,410.6 720.0,430.0" fill="none" stroke="#2c3e50" stroke-width="3"/>
  <polyline points="80.0,77.3 96.0,84.0 112.0,90.7 128.0,97.6 144.0,104.4 160.0,111.3 176.0,118.2 192.0,125.2 208.0,132.2 224.0,139.3 240.0,146.4 256.0,153.6 272.0,160.8 288.0,168.1 304.0,175.4 320.0,182.8 336.0,190.3 352.0,197.8 368.0,205.4 384.0,213.1 400.0,220.9 416.0,228.7 432.0,236.7 448.0,244.7 464.0,252.9 480.0,261.1 496.0,269.5 512.0,278.0 528.0,286.7 544.0,295.5 560.0,304.5 576.0,313.7 592.0,323.2 608.0,332.8 624.0,342.9 640.0,353.2 656.0,364.1 672.0,375.6 688.0,387.9 704.0,401.8 720.0,421.2" fill="none" stroke="#3498db" stroke-width="2.5"/>
  <polyline points="80.0,69.6 96.0,76.3 112.0,83.1 128.0,89.9 144.0,96.8 160.0,103.6 176.0,110.6 192.0,117.5 208.0,124.6 224.0,131.6 240.0,138.7 256.0,145.9 272.0,153.1 288.0,160.4 304.0,167.8 320.0,175.2 336.0,182.6 352.0,190.2 368.0,197.8 384.0,205.5 400.0,213.2 416.0,221.1 432.0,229.0 448.0,237.1 464.0,245.2 480.0,253.5 496.0,261.9 512.0,270.4 528.0,279.1 544.0,287.9 560.0,296.9 576.0,306.1 592.0,315.5 608.0,325.2 624.0,335.2 640.0,345.6 656.0,356.4 672.0,367.9 688.0,380.3 704.0,394.2 720.0,413.5" fill="none" stroke="#e67e22" stroke-width="2.5"/>
  <polyline points="80.0,62.4 96.0,69.1 112.0,75.9 128.0,82.7 144.0,89.5 160.0,96.4 176.0,103.3 192.0,110.3 208.0,117.3 224.0,124.4 240.0,131.5 256.0,138.7 272.0,145.9 288.0,153.2 304.0,160.5 320.0,167.9 336.0,175.4 352.0,182.9 368.0,190.5 384.0,198.2 400.0,206.0 416.0,213.9 432.0,221.8 448.0,229.8 464.0,238.0 480.0,246.3 496.0,254.6 512.0,263.2 528.0,271.8 544.0,280.6 560.0,289.6 576.0,298.8 592.0,308.3 608.0,318.0 624.0,328.0 640.0,338.3 656.0,349.2 672.0,360.7 688.0,373.0 704.0,386.9 720.0,406.3" fill="none" stroke="#e74c3c" stroke-width="2.5"/>

  <!-- Legend -->
  <g transform="translate(540, 90)">
    <rect x="0" y="0" width="180" height="120" fill="white" stroke="#999" stroke-width="1" rx="5"/>

    <line x1="10" y1="20" x2="40" y2="20" stroke="#2c3e50" stroke-width="3"/>
    <text x="45" y="24" font-family="Arial, sans-serif" font-size="11" fill="#333">No wind (0 km/h)</text>

    <line x1="10" y1="45" x2="40" y2="45" stroke="#3498db" stroke-width="2.5"/>
    <text x="45" y="49" font-family="Arial, sans-serif" font-size="11" fill="#333">10 km/h wind</text>

    <line x1="10" y1="70" x2="40" y2="70" stroke="#e67e22" stroke-width="2.5"/>
    <text x="45" y="74" font-family="Arial, sans-serif" font-size="11" fill="#333">20 km/h wind</text>

    <line x1="10" y1="95" x2="40" y2="95" stroke="#e74c3c" stroke-width="2.5"/>
    <text x="45" y="99" font-family="Arial, sans-serif" font-size="11" fill="#333">30 km/h wind</text>
  </g>

</svg>