<svg xmlns="http://www.w3.org/2000/svg" viewBox="0 0 800 500">
  <!-- Title -->
  <text x="400" y="25" font-family="Arial, sans-serif" font-size="18" font-weight="bold" text-anchor="middle" fill="#333">
    Wind Chill Compensation Factor
  </text>

  <!-- Background -->
  <rect x="80" y="50" width="640" height="380" fill="#f9f9f9" stroke="#ddd" stroke-width="1"/>

  <!-- Grid lines -->
  <g stroke="#e0e0e0" stroke-width="1">
    <!-- Horizontal grid lines (every 0.5°C) -->
    <line x1="80" y1="50" x2="720" y2="50"/>    <!-- 3.0°C -->
    <line x1="80" y1="113" x2="720" y2="113"/>  <!-- 2.5°C -->
    <line x1="80" y1="177" x2="720" y2="177"/>  <!-- 2.0°C -->
    <line x1="80" y1="240" x2="720" y2="240"/>  <!-- 1.5°C -->
    <line x1="80" y1="303" x2="720" y2="303"/>  <!-- 1.0°C -->
    <line x1="80" y1="367" x2="720" y2="367"/>  <!-- 0.5°C -->
    <line x1="80" y1="430" x2="720" y2="430"/>  <!-- 0°C -->

    <!-- Vertical grid lines (every 5 km/h) -->
    <line x1="80" y1="50" x2="80" y2="430"/>    <!-- 0 km/h -->
    <line x1="187" y1="50" x2="187" y2="430"/>  <!-- 5 km/h -->
    <line x1="293" y1="50" x2="293" y2="430"/>  <!-- 10 km/h -->
    <line x1="400" y1="50" x2="400" y2="430"/>  <!-- 15 km/h -->
    <line x1="507" y1="50" x2="507" y2="430"/>  <!-- 20 km/h -->
    <line x1="613" y1="50" x2="613" y2="430"/>  <!-- 25 km/h -->
    <line x1="720" y1="50" x2="720" y2="430"/>  <!-- 30 km/h -->
  </g>

  <!-- Axes -->
  <line x1="80" y1="50" x2="80" y2="430" stroke="#333" stroke-width="2"/>
  <line x1="80" y1="430" x2="720" y2="430" stroke="#333" stroke-width="2"/>

  <!-- Y-axis labels (Temperature Adjustment) -->
  <g font-family="Arial, sans-serif" font-size="12" fill="#333" text-anchor="end">
    <text x="72" y="54">+3.0°C</text>
    <text x="72" y="117">+2.5°C</text>
    <text x="72" y="181">+2.0°C</text>
    <text x="72" y="244">+1.5°C</text>
    <text x="72" y="307">+1.0°C</text>
    <text x="72" y="371">+0.5°C</text>
    <text x="72" y="434">0°C</text>
  </g>

  <!-- X-axis labels (Wind Speed) -->
  <g font-family="Arial, sans-serif" font-size="12" fill="#333" text-anchor="middle">
    <text x="80" y="448">0</text>
    <text x="187" y="448">5</text>
    <text x="293" y="448">10</text>
    <text x="400" y="448">15</text>
    <text x="507" y="448">20</text>
    <text x="613" y="448">25</text>
    <text x="720" y="448">30</text>
  </g>

  <!-- Axis labels -->
  <text x="20" y="240" font-family="Arial, sans-serif" font-size="14" font-weight="bold" fill="#333" text-anchor="middle" transform="rotate(-90 20 240)">
    Temperature Adjustment (°C)
  </text>
  <text x="400" y="480" font-family="Arial, sans-serif" font-size="14" font-weight="bold" fill="#333" text-anchor="middle">
    Wind Speed (km/h)
  </text>

  <!-- Main curve -->
  <polyline points="80.0,430.0 101.3,353.7 122.7,309.1 144.0,277.5 165.3,252.9 186.7,232.9 208.0,215.9 229.3,201.2 250.7,188.3 272.0,176.7 293.3,166.2 314.7,156.6 336.0,147.8 357.3,139.6 378.7,132.1 400.0,125.0 421.3,118.3 442.7,112.0 464.0,106.0 485.3,100.4 506.7,95.0 528.0,89.9 549.3,85.0 570.7,80.3 592.0,75.9 613.3,71.5 634.7,67.4 656.0,63.4 677.3,59.5 698.7,55.8 720.0,52.2" fill="none" stroke="#27ae60" stroke-width="3"/>

  <!-- Formula annotation -->
  <text x="400" y="465" font-family="monospace" font-size="11" fill="#666" text-anchor="middle">
    Formula: Adjustment = 2 × log₁₀(1 + wind_speed)
  </text>
</svg>