<svg xmlns="http://www.w3.org/2000/svg" viewBox="0 0 800 500">
  <!-- Title -->
  <text x="400" y="25" font-family="Arial, sans-serif" font-size="18" font-weight="bold" text-anchor="middle" fill="#333">
    Wind Chill Compensation Factor
  </text>

  <!-- Background -->
  <rect x="80" y="50" width="640" height="380" fill="#f9f9f9" stroke="#ddd" stroke-width="1"/>

  <!-- Grid lines -->
  <g stroke="#e0e0e0" stroke-width="1">
    <!-- Horizontal grid lines (every 1°C) -->
    <line x1="80" y1="50" x2="720" y2="50"/>    <!-- 7°C -->
    <line x1="80" y1="104" x2="720" y2="104"/>  <!-- 6°C -->
    <line x1="80" y1="158" x2="720" y2="158"/>  <!-- 5°C -->
    <line x1="80" y1="212" x2="720" y2="212"/>  <!-- 4°C -->
    <line x1="80" y1="266" x2="720" y2="266"/>  <!-- 3°C -->
    <line x1="80" y1="320" x2="720" y2="320"/>  <!-- 2°C -->
    <line x1="80" y1="374" x2="720" y2="374"/>  <!-- 1°C -->
    <line x1="80" y1="430" x2="720" y2="430"/>  <!-- 0°C -->

    <!-- Vertical grid lines (every 5 km/h) -->
    <line x1="100" y1="50" x2="100" y2="430"/>  <!-- 0 km/h -->
    <line x1="200" y1="50" x2="200" y2="430"/>  <!-- 5 km/h -->
    <line x1="300" y1="50" x2="300" y2="430"/>  <!-- 10 km/h -->
    <line x1="400" y1="50" x2="400" y2="430"/>  <!-- 15 km/h -->
    <line x1="500" y1="50" x2="500" y2="430"/>  <!-- 20 km/h -->
    <line x1="600" y1="50" x2="600" y2="430"/>  <!-- 25 km/h -->
    <line x1="700" y1="50" x2="700" y2="430"/>  <!-- 30 km/h -->
  </g>

  <!-- Axes -->
  <line x1="80" y1="50" x2="80" y2="430" stroke="#333" stroke-width="2"/>
  <line x1="80" y1="430" x2="720" y2="430" stroke="#333" stroke-width="2"/>

  <!-- Y-axis labels (Temperature Adjustment) -->
  <g font-family="Arial, sans-serif" font-size="12" fill="#333" text-anchor="end">
    <text x="72" y="54">+7°C</text>
    <text x="72" y="108">+6°C</text>
    <text x="72" y="162">+5°C</text>
    <text x="72" y="216">+4°C</text>
    <text x="72" y="270">+3°C</text>
    <text x="72" y="324">+2°C</text>
    <text x="72" y="378">+1°C</text>
    <text x="72" y="434">0°C</text>
  </g>

  <!-- X-axis labels (Wind Speed) -->
  <g font-family="Arial, sans-serif" font-size="12" fill="#333" text-anchor="middle">
    <text x="100" y="448">0</text>
    <text x="200" y="448">5</text>
    <text x="300" y="448">10</text>
    <text x="400" y="448">15</text>
    <text x="500" y="448">20</text>
    <text x="600" y="448">25</text>
    <text x="700" y="448">30</text>
  </g>

  <!-- Axis labels -->
  <text x="20" y="240" font-family="Arial, sans-serif" font-size="14" font-weight="bold" fill="#333" text-anchor="middle" transform="rotate(-90 20 240)">
    Temperature Adjustment (°C)
  </text>
  <text x="400" y="480" font-family="Arial, sans-serif" font-size="14" font-weight="bold" fill="#333" text-anchor="middle">
    Wind Speed (km/h)
  </text>

  <!-- Main curve -->
  <polyline points="100.0,430.0 120.0,354.7 140.0,310.7 160.0,279.5 180.0,255.3 200.0,235.5 220.0,218.7 240.0,204.2 260.0,191.4 280.0,180.0 300.0,169.7 320.0,160.2 340.0,151.5 360.0,143.5 380.0,136.0 400.0,129.0 420.0,122.4 440.0,116.2 460.0,110.3 480.0,104.7 500.0,99.5 520.0,94.4 540.0,89.6 560.0,85.0 580.0,80.5 600.0,76.3 620.0,72.2 640.0,68.2 660.0,64.4 680.0,60.7 700.0,57.2" fill="none" stroke="#27ae60" stroke-width="3"/>

  <!-- Formula annotation -->
  <text x="400" y="465" font-family="monospace" font-size="11" fill="#666" text-anchor="middle">
    Formula: Adjustment = 2 × log(1 + wind_speed)
  </text>
</svg>